<svg xmlns="http://www.w3.org/2000/svg" viewBox="0 0 319.12 301.31"><defs><style>.a{fill:#fff;}.b,.c{fill:#ef4137;}.b{fill-rule:evenodd;}</style></defs><title>favicon</title><path class="a" d="M319.41,118.27a10.6,10.6,0,0,0-4.07-7.17c-7.65-5.9-22-12.75-37.37-12.75a45.45,45.45,0,0,0-8.06.73A51.42,51.42,0,0,0,277,69.44a10.64,10.64,0,0,0-11.74-9.67c-1.56.17-3.5,0.3-5.55,0.44-9.37.63-22.43,1.52-31.87,8.09a72.26,72.26,0,0,0-1.35-12.89c-0.22-1.28-.42-2.5-0.54-3.43a10.63,10.63,0,0,0-12.17-9.17,36.78,36.78,0,0,0-15.65,6.61c-1-14.42-11-27.89-18.72-38.31-1.67-2.26-3.26-4.39-4.49-6.2a10.64,10.64,0,0,0-15-2.66c-10,7.15-20.53,20.56-23.89,35.59A51.33,51.33,0,0,0,108.12,23,10.64,10.64,0,0,0,95.91,32.1c-0.21,1.56-.55,3.48-0.91,5.51-1.09,6.15-2.45,13.91-2,21.58a86,86,0,0,0-15.31-3.52c-1.57-.25-3.05-0.49-4.22-0.73A10.64,10.64,0,0,0,60.84,63.5a42.73,42.73,0,0,0,1.77,20.87,38.05,38.05,0,0,0-15.25-2.95c-11.15,0-22.66,3.74-31.92,6.74-2.68.87-5.2,1.69-7.31,2.28A10.64,10.64,0,0,0,.83,103.8c4.29,14,16.79,31.68,34.22,37.88-13.26,4.08-23.39,16.52-27.3,26.73a10.64,10.64,0,0,0,6.38,13.83c1.4,0.5,3.12,1.19,4.94,1.92,7.16,2.87,16,6.43,25,6.59-5.63,5.39-9.24,12.83-12,18.47-0.7,1.44-1.35,2.8-1.92,3.86a10.64,10.64,0,0,0-.76,8.23c0.87,2.73,2.8,4.4,5.36,5.69,5.38,2.71,12.19,3.67,18.68,3.67h0c1.71,0,3.38.47,5,.26C51,244.1,53,262,54.49,275.44c0.31,2.79.61,5.58,0.76,7.76A10.79,10.79,0,0,0,59,290.64a10.67,10.67,0,0,0,6.88,2.56c0.33,0,.67,0,1,0,13.42-1.27,31.21-8.72,41.44-22.2,1.89,11.68,9.36,22.4,16.67,28.26a10.63,10.63,0,0,0,6.66,2.34,10.4,10.4,0,0,0,1.29-.08,10.63,10.63,0,0,0,7.17-4.11c0.9-1.18,2.08-2.61,3.34-4.12a100.31,100.31,0,0,0,10.71-14.75,104.34,104.34,0,0,0,8.47,9c1.16,1.14,2.27,2.07,3.1,3a10.3,10.3,0,0,0,7.56,3.19h0.18a10.49,10.49,0,0,0,7.49-2.93,42.44,42.44,0,0,0,9.5-14.74c9.47,11.37,26,16.16,38.76,19.82,2.7,0.78,5.26,1.53,7.34,2.22a10.62,10.62,0,0,0,13.53-7c3.88-12.69,3.84-31.78-4.34-46.29a46.18,46.18,0,0,0,17,2.9h0a51.29,51.29,0,0,0,16.88-2.58A10.46,10.46,0,0,0,286,231.34c-0.58-1.48-1.21-3.32-1.89-5.28-2.85-8.3-6.75-19.65-14.44-27.14,7.25-1.23,14.09-4.86,19.35-7.57,1.43-.74,2.79-1.58,3.88-2.09a10.63,10.63,0,0,0,5-14.37A42.78,42.78,0,0,0,285.14,160c11.54-6.09,20.35-18.05,27.33-27.41,1.68-2.25,3.27-4.67,4.65-6.37A10.62,10.62,0,0,0,319.41,118.27Z" transform="translate(-0.37 -0.25)"/><path class="b" d="M221.77,102.79Q196.37,80.08,159,80.08q-37.88,0-63.29,22.49t-25.4,56.59q0,33.9,25.4,56.27T159,237.85q37.66,0,62.93-22.41t25.27-56.27Q247.16,125.52,221.77,102.79Zm-11.7,107q-20.34,19.93-50.22,19.68-30.06-.25-49.76-20.37T90.71,159.27q0.32-29.94,20.39-49.87t50.14-19.68q30.25,0.25,50,20.46t19.48,50.19Q230.43,189.91,210.07,209.83Z" transform="translate(-0.37 -0.25)"/><path class="b" d="M214,77.91c5.67-5.91,2.26-17.85,1.39-24.6-5.21.8-13.47,4.6-16.82,11.3C192.27,77.26,203.92,88.43,214,77.91Zm-0.08-23.33c3.32,9.49.48,24.54-12,22.05C199.29,68.1,204.24,59.23,213.89,54.59Z" transform="translate(-0.37 -0.25)"/><path class="b" d="M255.37,100c9-7.51,11.72-21.47,11-29.69-10.54,1.14-29.94.36-36.86,11.14C217.21,100.63,238.5,114.24,255.37,100Zm9.62-27c-3.47,16.35-15.14,27.13-29.11,26.36C227.54,81.32,249.36,71.48,265,73.06Z" transform="translate(-0.37 -0.25)"/><path class="b" d="M99.45,76.78C94.79,67.84,79.52,67,71.31,65.37c-1.14,6.4,0,17.54,6.48,24.12C90,101.87,107.69,92.71,99.45,76.78Zm-6.3,13.63c-11-.4-19.4-9.72-20.94-22.81C84.61,67.52,101,76.82,93.15,90.41Z" transform="translate(-0.37 -0.25)"/><path class="b" d="M132.65,51.34c-5.17-10.51-18.05-16.51-26.2-17.81C105,44.07,99.61,62.7,108.4,72,124,88.53,142.38,71.16,132.65,51.34Zm-23.9-15.81c15,7.32,22.71,21.23,18.58,34.59C107.78,73.9,103.47,50.34,108.74,35.54Z" transform="translate(-0.37 -0.25)"/><path class="b" d="M268.78,164.1c-17.2-2.65-26,15.21-9.84,23.09,9.06,4.43,21.81-4,29.42-7.57C285.45,173.8,277.9,165.53,268.78,164.1Zm-12.87,8.4c9.07-6.24,21.34-3.73,30.4,5.86C276.41,185.82,257.68,188.11,255.91,172.5Zm11.81-62.12c-28.05,8.65-28.14,42.26,2.13,42.31,17,0,30.12-22.25,39-33.21C300.16,112.78,282.59,105.8,267.72,110.38Zm-13.34,22.26c9.16-16.19,29.64-21.45,50.44-13.55C295.31,137.69,268.6,155,254.38,132.64Z" transform="translate(-0.37 -0.25)"/><path class="b" d="M145.55,47.67C145.76,77,177.92,86.78,186.68,57.8,191.59,41.5,174,22.56,166.1,10.89,157.18,17.28,145.44,32.11,145.55,47.67ZM163,66.85c-12.86-13.43-12-34.55,1.54-52.21C179.64,29.1,188.54,59.66,163,66.85Z" transform="translate(-0.37 -0.25)"/><path class="b" d="M39.3,131.9C67.18,141.06,86.69,113.7,62,96.15c-13.88-9.86-37.44.73-51,4.54C14.22,111.18,24.52,127,39.3,131.9Zm23.76-10.44c-16.83,7.91-36.58.36-49-18.11C32.58,93.66,64.39,95,63.05,121.45Z" transform="translate(-0.37 -0.25)"/><path class="b" d="M64.3,218.75c15.2-8.1,11.52-27.47-5.92-24.14-9.82,1.88-14.88,16.16-18.79,23.47C45.34,221,56.24,223,64.3,218.75Zm5.22-14.31C66,214.79,54.82,220.09,42,217.86,45.37,206.08,58.84,193.14,69.52,204.45Z" transform="translate(-0.37 -0.25)"/><path class="b" d="M131.64,290.93c6.06-7.94,19.19-20.66,16.34-32.37-5.08-20.81-28.18-15.15-29.46,5.59C117.85,275.15,125.58,286.07,131.64,290.93Zm-0.94-2.71c-8.9-13-8.7-28,.91-37C149.37,257.32,141.91,278.58,130.7,288.22Zm51.37-28.42c-2.88-17.23-22.69-19.93-25.11-2.09-1.36,10,10.73,19.51,16.49,25.62C178.08,278.74,183.59,268.93,182.07,259.8ZM170,250.17c8.82,6.68,10.3,19.17,4,30.81C163.78,273.9,155.68,256.79,170,250.17Zm-67.87,11c14.58-25.48-8.29-50.09-30.44-29.46-12.45,11.62-6.81,36.82-5.82,50.9C76.79,281.56,94.4,274.66,102.13,261.16Zm-5.45-25.37c4.36,18.08-7,35.91-27.6,44.34C63.32,260.05,71,229.16,96.68,235.79Z" transform="translate(-0.37 -0.25)"/><path class="b" d="M255.71,202.55c-21.69-6.91-29.33,17.18-11.21,29.78,9.61,6.69,23.77,5.71,31.54,2.92C272.19,225.35,267.91,206.42,255.71,202.55Zm17.34,32.07c-16.69.88-30.14-7.6-33-21.26C255.33,200.57,270.51,219.1,273.05,234.62Zm-39.17,11.63c-18-23.19-49.47-11.42-38.84,16.92,6,15.94,31.45,20.33,44.84,24.78C243.08,277.45,243.41,258.54,233.88,246.25Zm-25.54-4.63c18.38,2.86,30.53,20.16,30.48,42.41C218.07,281.7,192.43,262.82,208.34,241.62Z" transform="translate(-0.37 -0.25)"/><path class="c" d="M178.44,175.41v4.42h-0.71v-4.42h-1v-0.5h1v-0.45a3,3,0,0,1,.05-0.58,1.06,1.06,0,0,1,.21-0.46,1,1,0,0,1,.43-0.3,2.09,2.09,0,0,1,.7-0.1h0.29l0.31,0v0.52l-0.27,0h-0.24a1.1,1.1,0,0,0-.45.08,0.54,0.54,0,0,0-.23.21,0.66,0.66,0,0,0-.08.3c0,0.11,0,.24,0,0.37v0.43h1.14v0.5h-1.14Z" transform="translate(-0.37 -0.25)"/><path class="c" d="M182.1,173v1h-0.71v-1h0.71Zm0,1.89v4.92h-0.71v-4.92h0.71Z" transform="translate(-0.37 -0.25)"/><path class="c" d="M186.88,174.91v0.5H185.7v3.32a0.92,0.92,0,0,0,.1.46,0.55,0.55,0,0,0,.48.19l0.61,0v0.51h-0.63a1.59,1.59,0,0,1-1-.23,1.07,1.07,0,0,1-.27-0.87v-3.37h-1v-0.5h1v-1.48h0.71v1.48h1.18Z" transform="translate(-0.37 -0.25)"/><path class="c" d="M189.72,174.91v0.85h0a1.58,1.58,0,0,1,.72-0.72,2.39,2.39,0,0,1,1.14-.27,3.37,3.37,0,0,1,1,.13,1.7,1.7,0,0,1,.66.38,1.36,1.36,0,0,1,.35.6,3,3,0,0,1,.1.79v3.17H193v-3.07a2.61,2.61,0,0,0-.06-0.59,1.22,1.22,0,0,0-.24-0.47,1.17,1.17,0,0,0-.46-0.32,2,2,0,0,0-.71-0.11,2.11,2.11,0,0,0-.76.13,1.62,1.62,0,0,0-.56.35,1.56,1.56,0,0,0-.36.53,1.94,1.94,0,0,0-.14.68v2.87H189v-4.92h0.71Z" transform="translate(-0.37 -0.25)"/><path class="c" d="M196.7,178.21a1.73,1.73,0,0,0,.34.62,1.87,1.87,0,0,0,.59.46,1.9,1.9,0,0,0,.87.18,1.92,1.92,0,0,0,1.21-.34,1.75,1.75,0,0,0,.6-0.92H201a2.3,2.3,0,0,1-.82,1.3,2.73,2.73,0,0,1-1.7.46,3.12,3.12,0,0,1-1.18-.21,2.15,2.15,0,0,1-.82-0.57,2.33,2.33,0,0,1-.47-0.83,3.29,3.29,0,0,1-.15-1,3.1,3.1,0,0,1,.15-1,2.48,2.48,0,0,1,.47-0.84,2.32,2.32,0,0,1,.82-0.59,2.89,2.89,0,0,1,1.18-.22,2.77,2.77,0,0,1,1.19.24,2.32,2.32,0,0,1,.8.63,2.38,2.38,0,0,1,.44.89,3.27,3.27,0,0,1,.11,1H196.6A2.28,2.28,0,0,0,196.7,178.21Zm3.5-1.84a1.76,1.76,0,0,0-.36-0.56,1.82,1.82,0,0,0-.57-0.39,1.87,1.87,0,0,0-.76-0.15,1.92,1.92,0,0,0-.78.15,1.83,1.83,0,0,0-.57.39,1.9,1.9,0,0,0-.38.56,2.47,2.47,0,0,0-.18.65h3.75A1.91,1.91,0,0,0,200.21,176.37Z" transform="translate(-0.37 -0.25)"/><path class="c" d="M206.47,175.87a1.07,1.07,0,0,0-.33-0.34,1.41,1.41,0,0,0-.47-0.2,2.47,2.47,0,0,0-.58-0.06,2.68,2.68,0,0,0-.48,0,1.5,1.5,0,0,0-.45.14,0.87,0.87,0,0,0-.33.26,0.64,0.64,0,0,0-.12.4,0.49,0.49,0,0,0,.12.34,1,1,0,0,0,.3.23,2.25,2.25,0,0,0,.39.16l0.39,0.1,0.95,0.18a3.1,3.1,0,0,1,.6.14,2,2,0,0,1,.53.26,1.31,1.31,0,0,1,.38.4,1.07,1.07,0,0,1,.15.56,1.11,1.11,0,0,1-.21.68,1.71,1.71,0,0,1-.54.46,2.58,2.58,0,0,1-.75.25,4.63,4.63,0,0,1-.82.08,3,3,0,0,1-1.66-.41,1.65,1.65,0,0,1-.72-1.32h0.71a1.13,1.13,0,0,0,.52.92,2.15,2.15,0,0,0,1.19.31,3,3,0,0,0,.53,0,1.82,1.82,0,0,0,.51-0.16,1.18,1.18,0,0,0,.39-0.29,0.63,0.63,0,0,0,.16-0.43,0.59,0.59,0,0,0-.11-0.36,0.85,0.85,0,0,0-.29-0.25,1.86,1.86,0,0,0-.41-0.17l-0.47-.11-0.91-.17a5.6,5.6,0,0,1-.64-0.18,2,2,0,0,1-.51-0.25,1.14,1.14,0,0,1-.34-0.36,1.06,1.06,0,0,1-.12-0.53,1,1,0,0,1,.2-0.64,1.45,1.45,0,0,1,.51-0.43,2.64,2.64,0,0,1,.7-0.24,3.64,3.64,0,0,1,.77-0.08,3.3,3.3,0,0,1,.81.1,2,2,0,0,1,.66.29,1.5,1.5,0,0,1,.45.5,1.55,1.55,0,0,1,.19.7H206.6A1,1,0,0,0,206.47,175.87Z" transform="translate(-0.37 -0.25)"/><path class="c" d="M213,175.87a1.07,1.07,0,0,0-.33-0.34,1.45,1.45,0,0,0-.48-0.2,2.45,2.45,0,0,0-.57-0.06,2.66,2.66,0,0,0-.48,0,1.45,1.45,0,0,0-.44.14,0.84,0.84,0,0,0-.33.26,0.63,0.63,0,0,0-.12.4,0.5,0.5,0,0,0,.12.34,1,1,0,0,0,.3.23,2.33,2.33,0,0,0,.39.16l0.4,0.1,0.94,0.18a3.12,3.12,0,0,1,.6.14,2,2,0,0,1,.53.26,1.34,1.34,0,0,1,.38.4,1,1,0,0,1,.15.56,1.1,1.1,0,0,1-.21.68,1.69,1.69,0,0,1-.54.46,2.58,2.58,0,0,1-.75.25,4.65,4.65,0,0,1-.82.08,3,3,0,0,1-1.66-.41,1.66,1.66,0,0,1-.72-1.32H210a1.12,1.12,0,0,0,.52.92,2.14,2.14,0,0,0,1.18.31,2.93,2.93,0,0,0,.53,0,1.84,1.84,0,0,0,.51-0.16,1.17,1.17,0,0,0,.39-0.29,0.64,0.64,0,0,0,.15-0.43,0.59,0.59,0,0,0-.11-0.36,0.9,0.9,0,0,0-.29-0.25,1.89,1.89,0,0,0-.41-0.17l-0.47-.11-0.91-.17a6.21,6.21,0,0,1-.64-0.18A2,2,0,0,1,210,177a1.09,1.09,0,0,1-.34-0.36,1.06,1.06,0,0,1-.12-0.53,1,1,0,0,1,.2-0.64,1.43,1.43,0,0,1,.51-0.43,2.69,2.69,0,0,1,.7-0.24,3.68,3.68,0,0,1,.77-0.08,3.35,3.35,0,0,1,.82.1,2,2,0,0,1,.66.29,1.52,1.52,0,0,1,.45.5,1.58,1.58,0,0,1,.19.7h-0.71A1,1,0,0,0,213,175.87Z" transform="translate(-0.37 -0.25)"/><path class="c" d="M170.21,143.47c0,1.11,0,2.22,0,3.33q0,7.5.07,15,0.09,6.94-.05,13.44t-0.67,12.35a64.7,64.7,0,0,1-1.85,10.74A32.26,32.26,0,0,1,164,207a18.41,18.41,0,0,1-6.07,6.06q-3.87,2.38-7.16,1.5a9.3,9.3,0,0,1-5.5-4.46,6.34,6.34,0,0,1-1-4.89,6.23,6.23,0,0,1,2.54-3.75l-0.34-.56-0.62.38q-4,2.46-4.53,5.4a7.84,7.84,0,0,0,1.13,5.63,8.39,8.39,0,0,0,3.13,3.07,9.59,9.59,0,0,0,3.93,1.14,12.24,12.24,0,0,0,4.3-.5,17.62,17.62,0,0,0,4.29-1.92,27.7,27.7,0,0,0,9.21-9,40.92,40.92,0,0,0,5-13.53,113.37,113.37,0,0,0,1.93-19.44c0.25-9.56.09-19.12-.07-28.68h6.66v-1.3h-6.68q-0.07-4.17-.13-8.35-0.08-5.61.35-10.72A42,42,0,0,1,176,114a9.47,9.47,0,0,1,3.79-5.52,3.19,3.19,0,0,1,2.75-.55,4.06,4.06,0,0,1,2,1.8,12.24,12.24,0,0,1,1.08,2.14c0.24,0.65.46,1.35,0.68,2.1a4.69,4.69,0,0,0,1.88-2.82,4.39,4.39,0,0,0-.64-3.36,3.77,3.77,0,0,0-3.14-2,7.38,7.38,0,0,0-4.16,1.27,15.21,15.21,0,0,0-5.77,6.54,37.37,37.37,0,0,0-3,9.65,76.37,76.37,0,0,0-1.12,11.48q-0.09,3.69-.13,7.39" transform="translate(-0.37 -0.25)"/><path class="c" d="M119.45,146.9v2.86a16.52,16.52,0,0,0-8-2.54,7.81,7.81,0,0,0-4.44,1.21,3.53,3.53,0,0,0-1.81,3,3.19,3.19,0,0,0,1.1,2.33q1.1,1.06,6.06,2.69t6.48,3.38a5.71,5.71,0,0,1-1.24,8.77,11.38,11.38,0,0,1-6.82,2A18.77,18.77,0,0,1,102,168.3v-2.59a23.29,23.29,0,0,0,9.17,2.26,7.53,7.53,0,0,0,4.42-1.21,3.65,3.65,0,0,0,1.73-3.1,3.28,3.28,0,0,0-1.13-2.38q-1.13-1.09-6.09-2.76t-6.44-3.31a5.27,5.27,0,0,1-1.47-3.62,5.8,5.8,0,0,1,2.74-4.81,11.07,11.07,0,0,1,6.67-2A17.65,17.65,0,0,1,119.45,146.9Z" transform="translate(-0.37 -0.25)"/><path class="c" d="M164.82,132.43v37.65h-3.14V132.43h3.14Z" transform="translate(-0.37 -0.25)"/><path class="c" d="M201,170.08V166h-0.13a12.83,12.83,0,0,1-4.17,3.53,12.33,12.33,0,0,1-5.44,1.05,11.66,11.66,0,0,1-7.77-2.59,9,9,0,0,1-3.08-7.33V145.28h3.11v15.31a6.87,6.87,0,0,0,2.22,5.42,8.38,8.38,0,0,0,5.77,2,10.54,10.54,0,0,0,5.19-1.18,14.24,14.24,0,0,0,4.3-4.1V145.28h3.1v24.8H201Z" transform="translate(-0.37 -0.25)"/><path class="c" d="M213.74,132.43v37.65h-3.14V132.43h3.14Z" transform="translate(-0.37 -0.25)"/><path class="c" d="M140,144.8a15.51,15.51,0,0,1,10.57,3.69,12.11,12.11,0,0,1,0,18.4,17.08,17.08,0,0,1-21.18,0,12.05,12.05,0,0,1,0-18.4A15.63,15.63,0,0,1,140,144.8ZM140,168a11.93,11.93,0,0,0,8.21-2.92,9.83,9.83,0,0,0,0-14.71,11.84,11.84,0,0,0-8.2-3,12,12,0,0,0-8.26,2.94,9.84,9.84,0,0,0,0,14.73A12,12,0,0,0,140,168Z" transform="translate(-0.37 -0.25)"/><path class="b" d="M17.69,172.21c9.41,3.34,25.53,12,35.81,5.67,18.26-11.2,5.81-31.46-14.33-26.34C28.51,154.26,20.47,165,17.69,172.21ZM20,170.48c9.65-12.44,24-16.82,35.47-10.42C55.11,178.82,32.58,178.21,20,170.48Z" transform="translate(-0.37 -0.25)"/></svg>