<svg xmlns="http://www.w3.org/2000/svg" viewBox="0 0 479.35 502.97"><title>Artboard 1</title><path d="M96.48,164.67Q50.91,205.13,50.86,266.31q0,60.88,45.62,101.07t113.67,40.25q67.64,0,113-40.25t45.38-101.07q0-60.43-45.61-101.25t-112.8-40.79Q142.12,124.27,96.48,164.67Zm207.61,13.66q35.51,36.38,35,90.15-.56,53.05-37.13,88.83t-90.2,35.35q-54-.44-89.36-36.58T87.57,266.5q.57-53.78,36.63-89.56t90-35.35Q268.57,142,304.08,178.33Z"/><path d="M309,120.37c10.17-10.61,4.05-32.07,2.5-44.18-9.36,1.44-24.2,8.27-30.21,20.3C270,119.2,290.9,139.26,309,120.37Zm-.15-41.89c6,17,.87,44.08-21.59,39.61C282.57,102.75,291.47,86.81,308.81,78.48Z"/><path d="M383.3,160.1c16.13-13.5,21-38.56,19.78-53.33-18.94,2-53.78.65-66.21,20C314.76,161.17,353,185.62,383.3,160.1Zm17.28-48.44C394.34,141,373.39,160.4,348.3,159,333.31,126.5,372.51,108.82,400.58,111.67Z"/><path d="M103.26,118.34c-8.37-16.06-35.79-17.52-50.54-20.49-2.05,11.49,0,31.49,11.64,43.31C86.31,163.41,118.06,147,103.26,118.34ZM91.95,142.82c-19.8-.72-34.84-17.46-37.6-41C76.6,101.7,106.06,118.41,91.95,142.82Z"/><path d="M162.88,72.66c-9.29-18.88-32.42-29.66-47.06-32-2.57,18.91-12.29,52.38,3.51,69.09C147.44,139.45,180.37,108.24,162.88,72.66ZM120,44.26c27,13.15,40.79,38.14,33.38,62.13C118.22,113.16,110.48,70.84,120,44.26Z"/><path d="M405.48,178.69c-50.38,15.54-50.54,75.9,3.82,76,30.59,0,54.09-40,70.05-59.65C463.75,183,432.18,170.46,405.48,178.69Zm-24,40c16.45-29.07,53.23-38.52,90.59-24.35C455,227.74,407.07,258.85,381.52,218.67Z"/><path d="M407.39,275.17c-30.89-4.75-46.62,27.32-17.67,41.47,16.28,8,39.17-7.22,52.83-13.6C437.33,292.59,423.77,277.73,407.39,275.17Zm31.47,25.61c-17.77,13.4-51.41,17.52-54.59-10.53C400.55,279.06,422.6,283.56,438.86,300.78Z"/><path d="M259.93,84.26C268.76,55,237.22,21,223,0c-16,11.48-37.11,38.11-36.91,66C186.43,118.77,244.19,136.29,259.93,84.26ZM220.2,6.74c27.08,26,43.07,80.86-2.76,93.76C194.34,76.38,195.87,38.44,220.2,6.74Z"/><path d="M37.89,198.58A58.67,58.67,0,0,1,0,202.75v16c47.48,11.93,78.92-35.08,36-65.59-10-7.09-22.76-8.29-36-6.74v10.28C21.6,159.28,39.24,171.72,37.89,198.58Z"/><path d="M29.49,330C15.2,332.71,6.51,350.08,0,363.55v8.17c6.12-21.15,30.31-44.4,49.5-24.09C43.25,366.21,23.1,375.74,0,371.72V374c10.86,4.1,27.45,6.11,40.13-.64C67.43,358.79,60.82,324,29.49,330Z"/><path d="M53.39,396.59C31,417.45,41.16,462.72,42.94,488c19.62-1.86,51.24-14.25,65.13-38.5C134.27,403.75,93.17,359.54,53.39,396.59Zm-4.68,87C38.37,447.51,52.18,392,98.28,403.93,106.11,436.4,85.69,468.42,48.72,483.57Z"/><path d="M137.51,454.88c-1.21,19.74,12.68,39.36,23.56,48.09,10.88-14.27,34.47-37.1,29.35-58.14C181.29,407.46,139.8,417.63,137.51,454.88Zm21.87,43.22c-16-23.33-15.62-50.21,1.64-66.37C192.91,442.6,179.51,480.79,159.38,498.1Z"/><path d="M206.54,443.3c-2.44,18,19.28,35,29.62,46,8.33-8.25,18.23-25.87,15.48-42.26C246.46,416.12,210.9,411.25,206.54,443.3Zm30.61,41.81c-18.35-12.71-32.89-43.45-7.18-55.34C245.8,441.76,248.46,464.2,237.15,485.1Z"/><path d="M274.95,453.1c10.76,28.63,56.48,36.51,80.53,44.5,5.76-18.85,6.35-52.81-10.77-74.89C312.38,381.06,255.85,402.2,274.95,453.1Zm23.89-38.7c33,5.13,54.83,36.21,54.75,76.17C316.3,486.39,270.26,452.48,298.84,414.4Z"/><path d="M383.92,344.23c-39-12.4-52.68,30.85-20.14,53.49,17.25,12,42.7,10.25,56.65,5.24C413.51,385.18,405.83,351.19,383.92,344.23Zm31.14,57.6c-30,1.59-54.13-13.65-59.28-38.18C383.23,340.67,410.49,374,415.06,401.83Z"/><path d="M24.23,267.92C23.92,285,13.32,293.17,0,295.22v8.45c7.51.77,14.68,0,20.73-3.75C52,280.75,33.15,246.79,0,251.61v11.26A41.37,41.37,0,0,1,24.23,267.92Z"/></svg>