<?xml version="1.0" encoding="utf-8"?>
<!-- Generator: Adobe Illustrator 20.1.0, SVG Export Plug-In . SVG Version: 6.00 Build 0)  -->
<svg version="1.1" id="Layer_1" xmlns="http://www.w3.org/2000/svg" xmlns:xlink="http://www.w3.org/1999/xlink" x="0px" y="0px"
	 viewBox="0 0 336 315.9" style="enable-background:new 0 0 336 315.9;" xml:space="preserve">
<style type="text/css">
	.st0{fill-rule:evenodd;clip-rule:evenodd;fill:#EF4137;}
	.st1{fill:#4D4D4D;}
	.st2{fill:#EF4137;}
</style>
<g>
	<path class="st0" d="M237.8,103.7c-19.1-17.1-42.7-25.6-70.9-25.6c-28.5,0-52.3,8.5-71.4,25.4c-19.1,16.9-28.7,38.2-28.7,63.8
		c0,25.5,9.6,46.6,28.7,63.5c19.1,16.9,42.9,25.3,71.4,25.3c28.3,0,52-8.4,71-25.3c19-16.8,28.5-38,28.5-63.5
		C266.4,142,256.9,120.8,237.8,103.7z M224.6,224.4c-15.3,15-34.2,22.4-56.7,22.2c-22.6-0.2-41.3-7.8-56.1-23
		c-14.8-15.1-22.1-33.9-21.9-56.3c0.2-22.5,7.9-41.3,23-56.3c15.1-15,34-22.4,56.6-22.2c22.7,0.2,41.5,7.9,56.4,23.1
		c14.9,15.2,22.2,34.1,22,56.6C247.7,190.8,239.9,209.5,224.6,224.4z"/>
	<path class="st0" d="M229,75.6c6.4-6.7,2.5-20.1,1.6-27.7c-5.9,0.9-15.2,5.2-19,12.7C204.5,74.9,217.6,87.5,229,75.6z M228.9,49.3
		c3.7,10.7,0.5,27.7-13.6,24.9C212.4,64.5,218,54.5,228.9,49.3z"/>
	<path class="st0" d="M275.7,100.6c10.1-8.5,13.2-24.2,12.4-33.5c-11.9,1.3-33.8,0.4-41.6,12.6C232.6,101.2,256.6,116.6,275.7,100.6
		z M286.5,70.1c-3.9,18.4-17.1,30.6-32.8,29.7C244.3,79.5,268.9,68.3,286.5,70.1z"/>
	<path class="st0" d="M99.8,74.3c-5.3-10.1-22.5-11-31.7-12.9c-1.3,7.2,0,19.8,7.3,27.2C89.1,102.6,109.1,92.3,99.8,74.3z
		 M92.7,89.7c-12.4-0.5-21.9-11-23.6-25.7C83,63.9,101.5,74.4,92.7,89.7z"/>
	<path class="st0" d="M137.2,45.6c-5.8-11.9-20.4-18.6-29.6-20.1c-1.6,11.9-7.7,32.9,2.2,43.4C127.5,87.6,148.2,68,137.2,45.6z
		 M110.3,27.8c17,8.3,25.6,24,21,39C109.2,71.1,104.3,44.5,110.3,27.8z"/>
	<path class="st0" d="M290.8,172.8c-19.4-3-29.3,17.2-11.1,26c10.2,5,24.6-4.5,33.2-8.5C309.6,183.8,301.1,174.4,290.8,172.8z
		 M276.3,182.3c10.2-7,24.1-4.2,34.3,6.6C299.4,197.3,278.3,199.9,276.3,182.3z M289.6,112.2C258,122,257.9,159.9,292,160
		c19.2,0,34-25.1,44-37.5C326.2,114.9,306.4,107.1,289.6,112.2z M274.5,137.3c10.3-18.3,33.4-24.2,56.9-15.3
		C320.7,143,290.6,162.6,274.5,137.3z"/>
	<path class="st0" d="M151.8,41.5c0.2,33.1,36.5,44.1,46.4,11.4C203.7,34.5,183.9,13.2,175,0C164.9,7.2,151.7,23.9,151.8,41.5z
		 M171.5,63.1c-14.5-15.1-13.5-39,1.7-58.9C190.2,20.5,200.3,55,171.5,63.1z"/>
	<path class="st0" d="M31.9,136.5c31.5,10.3,53.5-20.5,25.6-40.3C41.9,85.1,15.3,97,0,101.3C3.6,113.1,15.2,131,31.9,136.5z
		 M58.7,124.7c-19,8.9-41.3,0.4-55.3-20.4C24.3,93.4,60.2,94.9,58.7,124.7z"/>
	<path class="st0" d="M60.1,234.5c17.2-9.1,13-31-6.7-27.2c-11.1,2.1-16.8,18.2-21.2,26.5C38.7,237,51,239.3,60.1,234.5z M66,218.3
		C62.1,230,49.4,236,34.9,233.5C38.8,220.2,54,205.6,66,218.3z"/>
	<path class="st0" d="M136.1,315.9c6.8-9,21.7-23.3,18.4-36.5c-5.7-23.5-31.8-17.1-33.2,6.3C120.5,298.1,129.3,310.4,136.1,315.9z
		 M135,312.9c-10-14.7-9.8-31.5,1-41.7C156.1,278,147.7,302,135,312.9z M193,280.8c-3.3-19.4-25.6-22.5-28.3-2.4
		c-1.5,11.3,12.1,22,18.6,28.9C188.5,302.2,194.7,291.1,193,280.8z M179.4,269.9c9.9,7.5,11.6,21.6,4.5,34.8
		C172.3,296.7,163.2,277.4,179.4,269.9z M102.8,282.3c16.5-28.7-9.4-56.5-34.3-33.2c-14.1,13.1-7.7,41.5-6.6,57.4
		C74.2,305.3,94.1,297.6,102.8,282.3z M96.7,253.7c4.9,20.4-7.9,40.5-31.1,50C59,281.1,67.7,246.2,96.7,253.7z"/>
	<path class="st0" d="M276.1,216.2c-24.5-7.8-33.1,19.4-12.7,33.6c10.8,7.5,26.8,6.4,35.6,3.3C294.6,241.9,289.8,220.6,276.1,216.2z
		 M295.6,252.4c-18.8,1-34-8.6-37.2-24C275.6,214,292.7,234.9,295.6,252.4z M251.4,265.5c-20.3-26.2-55.8-12.9-43.8,19.1
		c6.8,18,35.5,22.9,50.6,28C261.8,300.7,262.2,279.4,251.4,265.5z M222.6,260.3c20.7,3.2,34.4,22.7,34.4,47.8
		C233.6,305.5,204.7,284.2,222.6,260.3z"/>
	<g>
		<path class="st1" d="M191.9,185.6v5h-0.8v-5H190V185h1.1v-0.5c0-0.2,0-0.5,0.1-0.7c0-0.2,0.1-0.4,0.2-0.5c0.1-0.1,0.3-0.3,0.5-0.3
			c0.2-0.1,0.5-0.1,0.8-0.1c0.1,0,0.2,0,0.3,0c0.1,0,0.2,0,0.3,0v0.6c-0.1,0-0.2,0-0.3,0c-0.1,0-0.2,0-0.3,0c-0.2,0-0.4,0-0.5,0.1
			c-0.1,0.1-0.2,0.1-0.3,0.2c-0.1,0.1-0.1,0.2-0.1,0.3c0,0.1,0,0.3,0,0.4v0.5h1.3v0.6H191.9z"/>
		<path class="st1" d="M196,182.9v1.1h-0.8v-1.1H196z M196,185v5.6h-0.8V185H196z"/>
		<path class="st1" d="M201.4,185v0.6h-1.3v3.8c0,0.2,0,0.4,0.1,0.5c0.1,0.1,0.3,0.2,0.5,0.2c0.2,0,0.5,0,0.7,0v0.6
			c-0.1,0-0.2,0-0.4,0c-0.1,0-0.2,0-0.4,0c-0.5,0-0.9-0.1-1.1-0.3c-0.2-0.2-0.3-0.5-0.3-1v-3.8h-1.1V185h1.1v-1.7h0.8v1.7H201.4z"/>
		<path class="st1" d="M204.6,185v1h0c0.2-0.3,0.4-0.6,0.8-0.8c0.4-0.2,0.8-0.3,1.3-0.3c0.5,0,0.8,0.1,1.1,0.2
			c0.3,0.1,0.6,0.2,0.7,0.4c0.2,0.2,0.3,0.4,0.4,0.7c0.1,0.3,0.1,0.6,0.1,0.9v3.6h-0.8v-3.5c0-0.2,0-0.5-0.1-0.7
			c-0.1-0.2-0.1-0.4-0.3-0.5c-0.1-0.1-0.3-0.3-0.5-0.4c-0.2-0.1-0.5-0.1-0.8-0.1c-0.3,0-0.6,0.1-0.9,0.1c-0.2,0.1-0.5,0.2-0.6,0.4
			c-0.2,0.2-0.3,0.4-0.4,0.6c-0.1,0.2-0.1,0.5-0.2,0.8v3.2h-0.8V185H204.6z"/>
		<path class="st1" d="M212.5,188.7c0.1,0.3,0.2,0.5,0.4,0.7c0.2,0.2,0.4,0.4,0.7,0.5c0.3,0.1,0.6,0.2,1,0.2c0.6,0,1-0.1,1.4-0.4
			c0.3-0.3,0.6-0.6,0.7-1h0.8c-0.2,0.6-0.5,1.1-0.9,1.5c-0.5,0.3-1.1,0.5-1.9,0.5c-0.5,0-1-0.1-1.3-0.2c-0.4-0.2-0.7-0.4-0.9-0.6
			c-0.2-0.3-0.4-0.6-0.5-0.9c-0.1-0.4-0.2-0.7-0.2-1.1c0-0.4,0.1-0.7,0.2-1.1c0.1-0.4,0.3-0.7,0.5-0.9c0.2-0.3,0.5-0.5,0.9-0.7
			c0.4-0.2,0.8-0.3,1.3-0.3c0.5,0,1,0.1,1.3,0.3c0.4,0.2,0.7,0.4,0.9,0.7c0.2,0.3,0.4,0.6,0.5,1c0.1,0.4,0.1,0.8,0.1,1.1h-5
			C212.4,188.2,212.4,188.5,212.5,188.7z M216.4,186.7c-0.1-0.2-0.2-0.4-0.4-0.6c-0.2-0.2-0.4-0.3-0.6-0.4c-0.3-0.1-0.5-0.2-0.9-0.2
			c-0.3,0-0.6,0.1-0.9,0.2c-0.3,0.1-0.5,0.3-0.6,0.4c-0.2,0.2-0.3,0.4-0.4,0.6c-0.1,0.2-0.2,0.5-0.2,0.7h4.2
			C216.6,187.2,216.5,186.9,216.4,186.7z"/>
		<path class="st1" d="M223.5,186.1c-0.1-0.2-0.2-0.3-0.4-0.4c-0.2-0.1-0.3-0.2-0.5-0.2c-0.2,0-0.4-0.1-0.6-0.1
			c-0.2,0-0.4,0-0.5,0.1c-0.2,0-0.3,0.1-0.5,0.2c-0.1,0.1-0.3,0.2-0.4,0.3c-0.1,0.1-0.1,0.3-0.1,0.4c0,0.2,0,0.3,0.1,0.4
			c0.1,0.1,0.2,0.2,0.3,0.3c0.1,0.1,0.3,0.1,0.4,0.2c0.2,0,0.3,0.1,0.4,0.1l1.1,0.2c0.2,0,0.4,0.1,0.7,0.2c0.2,0.1,0.4,0.2,0.6,0.3
			c0.2,0.1,0.3,0.3,0.4,0.5c0.1,0.2,0.2,0.4,0.2,0.6c0,0.3-0.1,0.6-0.2,0.8c-0.2,0.2-0.4,0.4-0.6,0.5c-0.3,0.1-0.5,0.2-0.8,0.3
			c-0.3,0.1-0.6,0.1-0.9,0.1c-0.8,0-1.4-0.2-1.9-0.5c-0.5-0.3-0.8-0.8-0.8-1.5h0.8c0,0.5,0.2,0.8,0.6,1c0.4,0.2,0.8,0.4,1.3,0.4
			c0.2,0,0.4,0,0.6-0.1c0.2,0,0.4-0.1,0.6-0.2c0.2-0.1,0.3-0.2,0.4-0.3c0.1-0.1,0.2-0.3,0.2-0.5c0-0.2,0-0.3-0.1-0.4
			c-0.1-0.1-0.2-0.2-0.3-0.3c-0.1-0.1-0.3-0.1-0.5-0.2c-0.2-0.1-0.3-0.1-0.5-0.1l-1-0.2c-0.3-0.1-0.5-0.1-0.7-0.2
			c-0.2-0.1-0.4-0.2-0.6-0.3c-0.2-0.1-0.3-0.2-0.4-0.4c-0.1-0.2-0.1-0.4-0.1-0.6c0-0.3,0.1-0.5,0.2-0.7c0.1-0.2,0.3-0.4,0.6-0.5
			c0.2-0.1,0.5-0.2,0.8-0.3c0.3-0.1,0.6-0.1,0.9-0.1c0.3,0,0.6,0,0.9,0.1c0.3,0.1,0.5,0.2,0.7,0.3c0.2,0.1,0.4,0.3,0.5,0.6
			c0.1,0.2,0.2,0.5,0.2,0.8h-0.8C223.6,186.4,223.6,186.3,223.5,186.1z"/>
		<path class="st1" d="M230.9,186.1c-0.1-0.2-0.2-0.3-0.4-0.4c-0.2-0.1-0.3-0.2-0.5-0.2c-0.2,0-0.4-0.1-0.6-0.1
			c-0.2,0-0.4,0-0.5,0.1c-0.2,0-0.4,0.1-0.5,0.2c-0.2,0.1-0.3,0.2-0.4,0.3c-0.1,0.1-0.1,0.3-0.1,0.4c0,0.2,0,0.3,0.1,0.4
			c0.1,0.1,0.2,0.2,0.3,0.3c0.1,0.1,0.3,0.1,0.4,0.2c0.2,0,0.3,0.1,0.4,0.1l1.1,0.2c0.2,0,0.5,0.1,0.7,0.2c0.2,0.1,0.4,0.2,0.6,0.3
			c0.2,0.1,0.3,0.3,0.4,0.5c0.1,0.2,0.2,0.4,0.2,0.6c0,0.3-0.1,0.6-0.2,0.8c-0.2,0.2-0.4,0.4-0.6,0.5c-0.3,0.1-0.5,0.2-0.8,0.3
			c-0.3,0.1-0.6,0.1-0.9,0.1c-0.8,0-1.4-0.2-1.9-0.5c-0.5-0.3-0.8-0.8-0.8-1.5h0.8c0,0.5,0.2,0.8,0.6,1c0.4,0.2,0.8,0.4,1.3,0.4
			c0.2,0,0.4,0,0.6-0.1c0.2,0,0.4-0.1,0.6-0.2c0.2-0.1,0.3-0.2,0.4-0.3c0.1-0.1,0.2-0.3,0.2-0.5c0-0.2,0-0.3-0.1-0.4
			c-0.1-0.1-0.2-0.2-0.3-0.3c-0.1-0.1-0.3-0.1-0.5-0.2c-0.2-0.1-0.4-0.1-0.5-0.1l-1-0.2c-0.3-0.1-0.5-0.1-0.7-0.2
			c-0.2-0.1-0.4-0.2-0.6-0.3c-0.2-0.1-0.3-0.2-0.4-0.4c-0.1-0.2-0.1-0.4-0.1-0.6c0-0.3,0.1-0.5,0.2-0.7c0.1-0.2,0.3-0.4,0.6-0.5
			c0.2-0.1,0.5-0.2,0.8-0.3c0.3-0.1,0.6-0.1,0.9-0.1c0.3,0,0.6,0,0.9,0.1c0.3,0.1,0.5,0.2,0.7,0.3c0.2,0.1,0.4,0.3,0.5,0.6
			c0.1,0.2,0.2,0.5,0.2,0.8H231C231,186.4,231,186.3,230.9,186.1z"/>
	</g>
	<path class="st2" d="M179.6,149.6c0,1.3,0,2.5,0,3.8c0,5.6,0,11.3,0.1,16.9c0.1,5.2,0,10.3-0.1,15.2c-0.1,4.9-0.4,9.5-0.8,13.9
		c-0.4,4.4-1.1,8.4-2.1,12.1c-1,3.7-2.4,6.9-4.1,9.8c-1.8,2.8-4,5.1-6.8,6.8c-2.9,1.8-5.6,2.4-8.1,1.7c-2.5-0.7-4.5-2.3-6.2-5
		c-1.2-1.9-1.6-3.8-1.1-5.5c0.4-1.8,1.4-3.2,2.9-4.2l-0.4-0.6l-0.7,0.4c-3,1.8-4.7,3.9-5.1,6.1c-0.4,2.2,0,4.3,1.3,6.4
		c1,1.6,2.1,2.7,3.5,3.5c1.4,0.8,2.9,1.2,4.4,1.3c1.6,0.1,3.2-0.1,4.9-0.6c1.7-0.5,3.3-1.2,4.8-2.2c4.4-2.7,7.9-6.1,10.4-10.1
		c2.5-4.1,4.4-9.1,5.6-15.3c1.2-6.1,2-13.4,2.2-21.9c0.3-10.8,0.1-21.6-0.1-32.4h7.5v-1.5H184c-0.1-3.1-0.1-6.3-0.2-9.4
		c-0.1-4.2,0.1-8.3,0.4-12.1c0.3-3.8,0.9-7.2,1.9-10.2c0.9-3,2.4-5,4.3-6.2c1.2-0.7,2.2-0.9,3.1-0.6c0.9,0.3,1.6,1,2.3,2
		c0.5,0.9,0.9,1.7,1.2,2.4c0.3,0.7,0.5,1.5,0.8,2.4c1.1-0.8,1.8-1.9,2.1-3.2c0.3-1.3,0-2.5-0.7-3.8c-0.9-1.4-2.1-2.2-3.5-2.3
		c-1.5-0.1-3,0.4-4.7,1.4c-2.8,1.7-5,4.2-6.5,7.4c-1.5,3.2-2.7,6.8-3.4,10.9c-0.7,4.1-1.1,8.4-1.3,13c-0.1,2.8-0.1,5.6-0.2,8.3"/>
	<path class="st1" d="M119.3,153.4v3.2c-3.3-1.9-6.3-2.9-9-2.9c-2,0-3.6,0.5-5,1.4c-1.4,0.9-2,2-2,3.4c0,1,0.4,1.8,1.2,2.6
		c0.8,0.8,3.1,1.8,6.8,3c3.7,1.2,6.2,2.5,7.3,3.8c1.1,1.3,1.7,2.8,1.7,4.4c0,2.2-1,4-3.1,5.5c-2.1,1.5-4.6,2.2-7.7,2.2
		c-3.3,0-6.6-0.9-9.9-2.6v-2.9c3.9,1.7,7.3,2.6,10.3,2.6c2,0,3.7-0.5,5-1.4c1.3-0.9,1.9-2.1,1.9-3.5c0-1-0.4-1.9-1.3-2.7
		c-0.8-0.8-3.1-1.9-6.9-3.1c-3.7-1.3-6.2-2.5-7.3-3.7c-1.1-1.2-1.7-2.6-1.7-4.1c0-2.1,1-3.9,3.1-5.4c2.1-1.5,4.6-2.2,7.5-2.2
		C113.2,151.1,116.2,151.8,119.3,153.4z"/>
	<path class="st1" d="M170.5,137.1v42.5H167v-42.5H170.5z"/>
	<path class="st1" d="M217.3,179.6V175h-0.1c-1.5,1.9-3.1,3.2-4.7,4c-1.6,0.8-3.7,1.2-6.1,1.2c-3.5,0-6.5-1-8.8-2.9
		c-2.3-1.9-3.5-4.7-3.5-8.3v-17.3h3.5v17.3c0,2.6,0.8,4.6,2.5,6.1c1.7,1.5,3.8,2.2,6.5,2.2c2.3,0,4.2-0.4,5.9-1.3
		c1.6-0.9,3.2-2.4,4.8-4.6v-19.6h3.5v28H217.3z"/>
	<path class="st1" d="M231.7,137.1v42.5h-3.5v-42.5H231.7z"/>
	<path class="st1" d="M142.5,151.1c4.8,0,8.7,1.4,11.9,4.2c3.2,2.8,4.8,6.2,4.8,10.4c0,4.1-1.6,7.6-4.8,10.4
		c-3.2,2.8-7.2,4.2-11.9,4.2c-4.8,0-8.8-1.4-12-4.2c-3.2-2.8-4.8-6.2-4.8-10.4c0-4.2,1.6-7.6,4.8-10.4
		C133.7,152.4,137.7,151.1,142.5,151.1z M142.5,177.2c3.7,0,6.8-1.1,9.3-3.3c2.5-2.2,3.7-5,3.7-8.3c0-3.3-1.2-6.1-3.7-8.3
		c-2.5-2.2-5.6-3.3-9.2-3.3c-3.7,0-6.8,1.1-9.3,3.3c-2.5,2.2-3.7,5-3.7,8.3c0,3.3,1.2,6.1,3.7,8.3
		C135.7,176.1,138.8,177.2,142.5,177.2z"/>
	<path class="st0" d="M7.5,182c10.6,3.8,28.8,13.5,40.4,6.4c20.6-12.6,6.6-35.5-16.2-29.7C19.7,161.7,10.7,173.8,7.5,182z M10.1,180
		c10.9-14,27-19,40-11.8C49.8,189.4,24.3,188.8,10.1,180z"/>
</g>
</svg>
