<svg xmlns="http://www.w3.org/2000/svg" viewBox="0 0 451.91 446.83"><defs><style>.a{fill:#ef4136;}.b{fill:#fff;}</style></defs><title>Artboard 2</title><path class="a" d="M308.27,280.77v17.83h-2.85V280.77h-4v-2h4v-1.82a11.8,11.8,0,0,1,.22-2.35,4.28,4.28,0,0,1,.87-1.85,4,4,0,0,1,1.74-1.2,8.23,8.23,0,0,1,2.84-.42c.42,0,.82,0,1.18,0l1.22.12v2.08c-.4-.06-.75-.11-1.09-.14a9,9,0,0,0-1-.06,4.44,4.44,0,0,0-1.82.31,2.18,2.18,0,0,0-.93.83,2.88,2.88,0,0,0-.33,1.21c0,.46,0,1,0,1.5v1.74h4.62v2Z"/><path class="a" d="M323,271.11V275h-2.86v-3.88Zm0,7.63v19.87h-2.86V278.74Z"/><path class="a" d="M342.35,278.74v2h-4.76v13.41A3.76,3.76,0,0,0,338,296c.26.45.9.7,1.92.75.81,0,1.64,0,2.45-.11v2c-.43,0-.85,0-1.27,0s-.85,0-1.27,0a6.42,6.42,0,0,1-4-.94c-.76-.63-1.12-1.79-1.1-3.48v-13.6h-4.07v-2h4.07v-6h2.87v6Z"/><path class="a" d="M353.81,278.74v3.42h.09a6.2,6.2,0,0,1,2.91-2.9,9.59,9.59,0,0,1,4.58-1.11,13.47,13.47,0,0,1,4.1.54,6.75,6.75,0,0,1,2.65,1.52,5.41,5.41,0,0,1,1.4,2.41,11.68,11.68,0,0,1,.41,3.19v12.79h-2.86v-12.4a10,10,0,0,0-.26-2.37,4.75,4.75,0,0,0-1-1.91,4.65,4.65,0,0,0-1.84-1.27,7.84,7.84,0,0,0-2.88-.46,8.48,8.48,0,0,0-3.06.52,6.76,6.76,0,0,0-2.26,1.43,6.44,6.44,0,0,0-1.45,2.15,7.81,7.81,0,0,0-.57,2.72v11.59H351V278.74Z"/><path class="a" d="M382,292a7.16,7.16,0,0,0,1.38,2.53,7.47,7.47,0,0,0,2.4,1.84,7.63,7.63,0,0,0,3.5.74,7.74,7.74,0,0,0,4.89-1.39,7.08,7.08,0,0,0,2.44-3.7h2.85a9.34,9.34,0,0,1-3.33,5.24c-1.62,1.24-3.9,1.85-6.86,1.85a12.61,12.61,0,0,1-4.79-.83,8.77,8.77,0,0,1-3.28-2.27,9.36,9.36,0,0,1-1.88-3.35,13.06,13.06,0,0,1-.61-4,12.42,12.42,0,0,1,.61-3.86,9.76,9.76,0,0,1,1.88-3.37,9.28,9.28,0,0,1,3.28-2.39,11.67,11.67,0,0,1,4.79-.91,11,11,0,0,1,4.79,1,9.13,9.13,0,0,1,3.25,2.52,9.56,9.56,0,0,1,1.78,3.59,13.42,13.42,0,0,1,.46,4.1h-18A9.23,9.23,0,0,0,382,292Zm14.14-7.41a7,7,0,0,0-1.47-2.26,7.39,7.39,0,0,0-2.31-1.58,7.67,7.67,0,0,0-3.08-.59,7.83,7.83,0,0,0-3.14.59,7.39,7.39,0,0,0-2.3,1.58,7.62,7.62,0,0,0-1.52,2.28,9.67,9.67,0,0,0-.74,2.64h15.13A7.53,7.53,0,0,0,396.11,284.63Z"/><path class="a" d="M421.37,282.6a4.22,4.22,0,0,0-1.34-1.36,5.91,5.91,0,0,0-1.92-.79,10.3,10.3,0,0,0-2.31-.25,10.93,10.93,0,0,0-1.93.17,6.33,6.33,0,0,0-1.79.58,3.64,3.64,0,0,0-1.32,1.06,2.6,2.6,0,0,0-.49,1.61,2,2,0,0,0,.48,1.37,3.92,3.92,0,0,0,1.2.94,8.41,8.41,0,0,0,1.59.63c.57.17,1.1.31,1.58.41l3.81.73a12.74,12.74,0,0,1,2.42.56,8.17,8.17,0,0,1,2.13,1.06,5.39,5.39,0,0,1,1.52,1.62,4.27,4.27,0,0,1,.58,2.27,4.43,4.43,0,0,1-.86,2.76,6.68,6.68,0,0,1-2.19,1.84,10.53,10.53,0,0,1-3,1,18.78,18.78,0,0,1-3.31.31,12.09,12.09,0,0,1-6.68-1.66,6.66,6.66,0,0,1-2.93-5.31h2.85a4.57,4.57,0,0,0,2.11,3.72,8.6,8.6,0,0,0,4.78,1.25,12.3,12.3,0,0,0,2.15-.2,7.68,7.68,0,0,0,2.07-.65,4.79,4.79,0,0,0,1.55-1.18,2.54,2.54,0,0,0,.62-1.76,2.44,2.44,0,0,0-.44-1.47,3.47,3.47,0,0,0-1.15-1,7.72,7.72,0,0,0-1.66-.67c-.62-.18-1.24-.34-1.88-.47l-3.67-.69a22,22,0,0,1-2.58-.71,8.52,8.52,0,0,1-2.06-1,4.51,4.51,0,0,1-1.38-1.46,4.7,4.7,0,0,1,.3-4.72,5.78,5.78,0,0,1,2.06-1.72,10.49,10.49,0,0,1,2.83-1,15.54,15.54,0,0,1,3.11-.31,13.54,13.54,0,0,1,3.28.39,7.93,7.93,0,0,1,2.68,1.2,6.17,6.17,0,0,1,1.84,2,6.41,6.41,0,0,1,.76,2.81h-2.85A4,4,0,0,0,421.37,282.6Z"/><path class="a" d="M447.7,282.6a4.26,4.26,0,0,0-1.34-1.36,6,6,0,0,0-1.93-.79,10.14,10.14,0,0,0-2.31-.25,10.79,10.79,0,0,0-1.92.17,6.2,6.2,0,0,0-1.79.58A3.49,3.49,0,0,0,437.1,282a2.57,2.57,0,0,0-.5,1.61,2.05,2.05,0,0,0,.47,1.37,4,4,0,0,0,1.2.94,8.52,8.52,0,0,0,1.59.63c.58.17,1.11.31,1.59.41l3.8.73a12.71,12.71,0,0,1,2.43.56,8.07,8.07,0,0,1,2.13,1.06,5.4,5.4,0,0,1,1.52,1.62,4.23,4.23,0,0,1,.59,2.27,4.44,4.44,0,0,1-.86,2.76,6.73,6.73,0,0,1-2.2,1.84,10.36,10.36,0,0,1-3,1,18.8,18.8,0,0,1-3.3.31,12.13,12.13,0,0,1-6.69-1.66,6.69,6.69,0,0,1-2.92-5.31h2.86a4.55,4.55,0,0,0,2.1,3.72,8.62,8.62,0,0,0,4.78,1.25,12.19,12.19,0,0,0,2.15-.2,7.71,7.71,0,0,0,2.07-.65,4.71,4.71,0,0,0,1.56-1.18,2.58,2.58,0,0,0,.62-1.76,2.45,2.45,0,0,0-.43-1.47,3.62,3.62,0,0,0-1.15-1,7.69,7.69,0,0,0-1.66-.67c-.62-.18-1.25-.34-1.88-.47l-3.67-.69a22.59,22.59,0,0,1-2.59-.71,8.58,8.58,0,0,1-2.06-1,4.45,4.45,0,0,1-1.38-1.46,4.72,4.72,0,0,1,.29-4.72,5.84,5.84,0,0,1,2.06-1.72,10.57,10.57,0,0,1,2.83-1,15.6,15.6,0,0,1,3.11-.31,13.61,13.61,0,0,1,3.28.39,7.88,7.88,0,0,1,2.67,1.2,6,6,0,0,1,1.83,2,6.33,6.33,0,0,1,.77,2.81h-2.85A4.07,4.07,0,0,0,447.7,282.6Z"/><path class="a" d="M275.07,151.88c-.05,4.48-.11,9-.13,13.44q-.13,30.28.27,60.56.34,28-.22,54.23T272.25,330a260.7,260.7,0,0,1-7.48,43.36,130.11,130.11,0,0,1-14.75,35,74.27,74.27,0,0,1-24.48,24.45q-15.59,9.59-28.89,6.06t-22.2-18q-6.34-10.3-4.08-19.75a25.16,25.16,0,0,1,10.26-15.13l-1.37-2.24-2.5,1.55q-16.15,9.92-18.27,21.78a31.6,31.6,0,0,0,4.57,22.72,33.74,33.74,0,0,0,12.62,12.38,38.61,38.61,0,0,0,15.88,4.61,49.43,49.43,0,0,0,17.36-2,71,71,0,0,0,17.3-7.76q23.65-14.54,37.15-36.28t20.14-54.6q6.64-32.86,7.76-78.45c1-38.57.38-77.15-.29-115.72h26.86v-5.24h-27q-.3-16.84-.54-33.69-.31-22.63,1.41-43.26a169.46,169.46,0,0,1,6.68-36.54q5-15.92,15.28-22.26,6.4-3.93,11.11-2.22T332.94,16a48.78,48.78,0,0,1,4.36,8.64c1,2.61,1.87,5.44,2.73,8.49a18.93,18.93,0,0,0,7.58-11.38A17.79,17.79,0,0,0,345,8.15Q340.24.36,332.35,0T315.57,5.17q-15,9.25-23.28,26.4A150.46,150.46,0,0,0,280.16,70.5a308,308,0,0,0-4.51,46.33q-.38,14.91-.54,29.82"/><path class="b" d="M70.25,165.71v11.53Q52.33,167,38,167q-10.62,0-17.91,4.88t-7.29,12q0,5.1,4.43,9.39t24.44,10.85q20,6.57,26.14,13.64A23.45,23.45,0,0,1,74,233.58q0,11.64-11.13,19.63t-27.51,8q-17.78,0-35.32-9.14V241.63q20.86,9.14,37,9.13,10.87,0,17.84-4.88t7-12.51q0-5.21-4.54-9.62T32.69,212.6q-20-6.76-26-13.34a21.27,21.27,0,0,1-6-14.63q0-11.42,11.07-19.41t26.93-8Q53.23,157.23,70.25,165.71Z"/><path class="b" d="M253.31,107.3V259.25H240.64V107.3Z"/><path class="b" d="M399.16,259.25V242.71h-.52q-8.18,10-16.83,14.25t-21.95,4.24q-18.93,0-31.34-10.45t-12.41-29.58v-62h12.55V221q0,13.93,8.95,21.87t23.29,7.93q12.28,0,20.92-4.78t17.35-16.53V159.18H411.7V259.25Z"/><path class="b" d="M450.73,107.3V259.25H438.06V107.3Z"/><path class="b" d="M153,157.23q25.58,0,42.67,14.9t17.08,37.2q0,22.19-17.08,37T153,261.21q-25.59,0-42.8-14.85T93,209.33q0-22.29,17.21-37.2T153,157.23Zm0,93.53q19.83,0,33.14-11.79a38,38,0,0,0,13.31-29.64q0-17.74-13.37-29.7t-33.07-12q-20,0-33.33,11.85a39.73,39.73,0,0,0,0,59.45Q133.08,250.77,153,250.76Z"/></svg>