<svg xmlns="http://www.w3.org/2000/svg" viewBox="0 0 543.45 510.96"><defs><style>.a{opacity:0.1;}.b{fill-rule:evenodd;}</style></defs><title>solful-banner-bg-20</title><g class="a"><path class="b" d="M384.57,167.68Q338.23,126.25,270,126.24q-69.11,0-115.48,41T108.15,270.54q0,61.85,46.34,102.67T270,414.1q68.72,0,114.83-40.89t46.1-102.67Q430.9,209.15,384.57,167.68ZM363.21,363q-37.12,36.36-91.63,35.92-54.84-.45-90.78-37.16t-35.36-91q.58-54.63,37.21-91t91.48-35.92q55.19.45,91.27,37.33t35.54,91.58Q400.37,326.64,363.21,363Z"/><path class="b" d="M370.35,122.29c10.34-10.78,4.12-32.58,2.54-44.88-9.5,1.47-24.58,8.4-30.69,20.62C330.73,121.09,352,141.48,370.35,122.29Zm-.15-42.56c6.06,17.32.88,44.78-21.94,40.24C343.54,104.38,352.58,88.19,370.19,79.73Z"/><path class="b" d="M445.86,162.65c16.38-13.71,21.38-39.17,20.1-54.17-19.24,2.07-54.63.66-67.26,20.33C376.24,163.73,415.08,188.57,445.86,162.65Zm17.56-49.21c-6.34,29.83-27.62,49.51-53.11,48.09C395.09,128.51,434.91,110.55,463.42,113.44Z"/><path class="b" d="M161.38,120.22C152.88,103.91,125,102.42,110,99.4c-2.09,11.67,0,32,11.83,44C144.17,166,176.41,149.29,161.38,120.22Zm-11.49,24.87c-20.11-.73-35.39-17.74-38.2-41.62C134.3,103.32,164.23,120.29,149.89,145.09Z"/><path class="b" d="M222,73.81c-9.44-19.18-32.94-30.13-47.8-32.49-2.61,19.21-12.48,53.21,3.57,70.18C206.26,141.67,239.71,110,222,73.81ZM178.34,45c27.45,13.36,41.44,38.74,33.91,63.12C176.58,115,168.72,72,178.34,45Z"/><path class="b" d="M470.34,279.54c-31.38-4.83-47.36,27.75-18,42.13,16.54,8.09,39.79-7.33,53.67-13.82C500.76,297.23,487,282.14,470.34,279.54Zm-23.49,15.32c16.54-11.38,38.94-6.8,55.46,10.69C484.25,319.17,450.08,323.35,446.85,294.86ZM468.4,181.53c-51.18,15.78-51.34,77.1,3.88,77.2,31.08,0,55-40.6,71.17-60.59C527.59,185.9,495.53,173.17,468.4,181.53Zm-24.34,40.62c16.71-29.54,54.08-39.13,92-24.73C518.75,231.35,470,263,444.06,222.14Z"/><path class="b" d="M245.48,67.1c.39,53.56,59.06,71.36,75.05,18.5,9-29.75-23.06-64.31-37.55-85.6C266.71,11.66,245.29,38.71,245.48,67.1Zm31.89,35c-23.47-24.5-21.92-63,2.8-95.25C307.69,33.22,323.93,89,277.38,102.1Z"/><path class="b" d="M51.62,220.79c50.88,16.72,86.48-33.21,41.48-65.22-25.33-18-68.31,1.34-93.1,8.28C5.86,183,24.66,211.92,51.62,220.79ZM95,201.73c-30.71,14.43-66.75.65-89.39-33C39.36,151,97.4,153.42,95,201.73Z"/><path class="b" d="M97.24,379.26c27.74-14.78,21-50.12-10.81-44.05C68.53,338.64,59.28,364.7,52.16,378,62.65,383.31,82.54,387.09,97.24,379.26Zm9.52-26.11C100.42,372,80,381.71,56.48,377.63,62.7,356.14,87.28,332.52,106.76,353.16Z"/><path class="b" d="M220.11,511c11.05-14.49,35-37.69,29.81-59.06-9.28-38-51.42-27.63-53.75,10.21C194.95,482.16,209.06,502.09,220.11,511ZM218.39,506c-16.24-23.7-15.87-51,1.66-67.43C252.46,449.63,238.85,488.43,218.39,506Zm93.73-51.86c-5.26-31.43-41.39-36.37-45.82-3.82-2.48,18.32,19.58,35.6,30.09,46.75C304.85,488.71,314.9,470.81,312.12,454.16Zm-22-17.57c16.08,12.19,18.79,35,7.3,56.22C278.76,479.89,264,448.66,290.1,436.59ZM166.27,456.64c26.61-46.48-15.13-91.39-55.55-53.75C88,424.08,98.29,470.07,100.1,495.75,120,493.87,152.16,481.28,166.27,456.64Zm-9.95-46.29c8,33-12.79,65.51-50.35,80.9C95.46,454.62,109.49,398.25,156.32,410.35Z"/><path class="b" d="M446.5,349.7C406.92,337.1,393,381,426,404c17.53,12.2,43.38,10.41,57.55,5.32C476.56,391.3,468.76,356.77,446.5,349.7Zm31.63,58.52c-30.46,1.61-55-13.86-60.22-38.79C445.8,346.09,473.49,379.9,478.13,408.22Zm-71.47,21.21c-32.83-42.32-90.26-20.84-70.86,30.87,10.94,29.08,57.38,37.09,81.81,45.21C423.45,486.36,424.06,451.86,406.66,429.43ZM360.07,421c33.53,5.21,55.7,36.79,55.62,77.38C377.81,494.12,331,459.67,360.07,421Z"/><path class="b" d="M12.2,294.34c17.18,6.09,46.59,21.82,65.34,10.34,33.32-20.43,10.6-57.41-26.14-48.06C31.93,261.58,17.27,281.11,12.2,294.34Zm4.18-3.15c17.61-22.7,43.73-30.69,64.71-19C80.48,306.4,39.37,305.29,16.38,291.19Z"/></g></svg>